<svg width="385" height="266" viewBox="0 0 385 266" fill="none" xmlns="http://www.w3.org/2000/svg">
<path d="M181.671 60.3487L181.67 60.3475L150.863 6.49822L121.022 58.9791L153.677 115.995L153.678 115.997L187.183 174.41L188.035 175.894L187.19 177.383L139.239 261.904L199.043 261.791L215.478 232.926L215.48 232.922L247.834 175.872L215.177 118.852L181.671 60.3487ZM283.578 6.23983L253.733 58.7268L286.389 115.745L319.895 174.248L320.746 175.733L319.901 177.22L271.952 261.652L331.753 261.538L348.189 232.673L348.191 232.669L380.631 175.531L347.977 118.601L347.976 118.6L314.47 60.0979L314.469 60.0962L283.578 6.23983ZM84.2941 123.667L5.65407 262.158L65.5397 262.045L114.334 176.038L84.2941 123.667Z" fill="#0D0F11" stroke="#ED961E" stroke-width="6"/>
</svg>
